STARTFONT 2.1
FONT -Monotype-Rockwell-Bold-I-Normal--12-120-72-72-P-72-iso8859-1
SIZE 12 72 72
FONTBOUNDINGBOX 17 16 -2 -3

STARTPROPERTIES 22
FOUNDRY "Monotype"
FAMILY_NAME "Rockwell"
WEIGHT_NAME "Bold"
SLANT "I"
SETWIDTH_NAME "Normal"
ADD_STYLE_NAME ""
PIXEL_SIZE 12
POINT_SIZE 120
RESOLUTION_X 72
RESOLUTION_Y 72
SPACING "P"
AVERAGE_WIDTH 72
CHARSET_REGISTRY "iso8859"
CHARSET_ENCODING "1"
COPYRIGHT "Copyright (c) 1996 Monotype Typography Ltd."
CAP_HEIGHT 10
X_HEIGHT 7
WEIGHT 10
QUAD_WIDTH 8
DEFAULT_CHAR 32
FONT_DESCENT 3
FONT_ASCENT 13
ENDPROPERTIES

CHARS 191

STARTCHAR space
ENCODING 32
SWIDTH 250 0
DWIDTH 4 0
BBX 0 0 0 0
BITMAP
ENDCHAR

STARTCHAR exclam
ENCODING 33
SWIDTH 333 0
DWIDTH 4 0
BBX 4 9 1 0
BITMAP
30
30
30
60
60
60
00
C0
C0
ENDCHAR

STARTCHAR quotedbl
ENCODING 34
SWIDTH 552 0
DWIDTH 7 0
BBX 5 4 2 5
BITMAP
D8
D8
D8
D8
ENDCHAR

STARTCHAR numbersign
ENCODING 35
SWIDTH 668 0
DWIDTH 9 0
BBX 8 9 1 0
BITMAP
12
12
FF
24
24
24
FF
48
48
ENDCHAR

STARTCHAR dollar
ENCODING 36
SWIDTH 500 0
DWIDTH 7 0
BBX 7 12 1 -2
BITMAP
08
3C
6E
6E
70
38
1C
EC
EC
78
20
20
ENDCHAR

STARTCHAR percent
ENCODING 37
SWIDTH 927 0
DWIDTH 12 0
BBX 12 9 1 0
BITMAP
3060
58C0
D980
D300
6660
0CB0
19B0
31A0
60C0
ENDCHAR

STARTCHAR ampersand
ENCODING 38
SWIDTH 740 0
DWIDTH 10 0
BBX 9 9 1 0
BITMAP
1C00
3600
3600
1C00
3980
6F00
C600
CE00
7B80
ENDCHAR

STARTCHAR quoteright
ENCODING 39
SWIDTH 333 0
DWIDTH 4 0
BBX 3 4 2 5
BITMAP
60
60
20
C0
ENDCHAR

STARTCHAR parenleft
ENCODING 40
SWIDTH 344 0
DWIDTH 4 0
BBX 5 12 1 -3
BITMAP
08
10
20
60
40
C0
C0
C0
C0
40
60
20
ENDCHAR

STARTCHAR parenright
ENCODING 41
SWIDTH 344 0
DWIDTH 4 0
BBX 5 12 -1 -3
BITMAP
20
30
10
18
18
18
18
10
30
20
40
80
ENDCHAR

STARTCHAR asterisk
ENCODING 42
SWIDTH 563 0
DWIDTH 7 0
BBX 7 7 1 2
BITMAP
18
D8
F6
3E
68
6C
0C
ENDCHAR

STARTCHAR plus
ENCODING 43
SWIDTH 668 0
DWIDTH 9 0
BBX 7 7 2 1
BITMAP
10
10
10
FE
10
10
10
ENDCHAR

STARTCHAR comma
ENCODING 44
SWIDTH 333 0
DWIDTH 4 0
BBX 3 4 0 -2
BITMAP
60
60
20
C0
ENDCHAR

STARTCHAR minus
ENCODING 45
SWIDTH 668 0
DWIDTH 9 0
BBX 7 1 1 4
BITMAP
FE
ENDCHAR

STARTCHAR period
ENCODING 46
SWIDTH 333 0
DWIDTH 4 0
BBX 2 2 1 0
BITMAP
C0
C0
ENDCHAR

STARTCHAR slash
ENCODING 47
SWIDTH 508 0
DWIDTH 7 0
BBX 6 9 1 0
BITMAP
0C
0C
18
18
30
30
60
60
C0
ENDCHAR

STARTCHAR zero
ENCODING 48
SWIDTH 542 0
DWIDTH 7 0
BBX 7 9 1 0
BITMAP
1C
36
36
6C
6C
6C
D8
D8
70
ENDCHAR

STARTCHAR one
ENCODING 49
SWIDTH 542 0
DWIDTH 7 0
BBX 5 9 2 0
BITMAP
38
18
18
30
30
30
60
60
F0
ENDCHAR

STARTCHAR two
ENCODING 50
SWIDTH 542 0
DWIDTH 7 0
BBX 6 9 1 0
BITMAP
38
6C
6C
18
18
30
60
D8
F0
ENDCHAR

STARTCHAR three
ENCODING 51
SWIDTH 542 0
DWIDTH 7 0
BBX 7 9 1 0
BITMAP
1C
16
06
1C
0C
0C
CC
D8
70
ENDCHAR

STARTCHAR four
ENCODING 52
SWIDTH 542 0
DWIDTH 7 0
BBX 8 9 0 0
BITMAP
03
07
0E
16
2C
4C
FE
18
3C
ENDCHAR

STARTCHAR five
ENCODING 53
SWIDTH 542 0
DWIDTH 7 0
BBX 7 9 1 0
BITMAP
3E
36
60
78
6C
0C
CC
D8
70
ENDCHAR

STARTCHAR six
ENCODING 54
SWIDTH 542 0
DWIDTH 7 0
BBX 7 9 1 0
BITMAP
1C
36
66
60
F8
CC
CC
D8
70
ENDCHAR

STARTCHAR seven
ENCODING 55
SWIDTH 542 0
DWIDTH 7 0
BBX 7 9 1 0
BITMAP
7E
4C
18
18
30
30
60
60
F0
ENDCHAR

STARTCHAR eight
ENCODING 56
SWIDTH 542 0
DWIDTH 7 0
BBX 7 9 1 0
BITMAP
1C
36
66
6C
38
6C
CC
D8
70
ENDCHAR

STARTCHAR nine
ENCODING 57
SWIDTH 542 0
DWIDTH 7 0
BBX 7 9 1 0
BITMAP
1C
36
66
66
3E
0C
CC
D8
70
ENDCHAR

STARTCHAR colon
ENCODING 58
SWIDTH 333 0
DWIDTH 4 0
BBX 3 6 1 0
BITMAP
60
60
00
00
C0
C0
ENDCHAR

STARTCHAR semicolon
ENCODING 59
SWIDTH 333 0
DWIDTH 4 0
BBX 4 8 0 -2
BITMAP
30
30
00
00
60
60
20
C0
ENDCHAR

STARTCHAR less
ENCODING 60
SWIDTH 667 0
DWIDTH 9 0
BBX 7 7 1 1
BITMAP
06
1C
70
C0
70
1C
06
ENDCHAR

STARTCHAR equal
ENCODING 61
SWIDTH 667 0
DWIDTH 9 0
BBX 7 4 1 2
BITMAP
FE
00
00
FE
ENDCHAR

STARTCHAR greater
ENCODING 62
SWIDTH 667 0
DWIDTH 9 0
BBX 7 7 1 1
BITMAP
C0
70
1C
06
1C
70
C0
ENDCHAR

STARTCHAR question
ENCODING 63
SWIDTH 542 0
DWIDTH 7 0
BBX 6 9 2 0
BITMAP
78
CC
0C
38
60
60
00
C0
C0
ENDCHAR

STARTCHAR at
ENCODING 64
SWIDTH 979 0
DWIDTH 13 0
BBX 12 12 1 -3
BITMAP
0FC0
3020
46D0
4DD0
8D90
9990
9990
9B20
4DC0
4010
3060
0F80
ENDCHAR

STARTCHAR A
ENCODING 65
SWIDTH 646 0
DWIDTH 8 0
BBX 9 9 0 0
BITMAP
1F80
0F00
1B00
1B00
3300
3F00
6300
6300
F780
ENDCHAR

STARTCHAR B
ENCODING 66
SWIDTH 667 0
DWIDTH 9 0
BBX 9 9 0 0
BITMAP
3F00
1980
1980
3300
3E00
3300
6300
6300
FE00
ENDCHAR

STARTCHAR C
ENCODING 67
SWIDTH 771 0
DWIDTH 10 0
BBX 9 9 2 0
BITMAP
1F00
3180
6180
6000
C000
C000
C300
E600
7C00
ENDCHAR

STARTCHAR D
ENCODING 68
SWIDTH 760 0
DWIDTH 10 0
BBX 10 9 0 0
BITMAP
3F80
19C0
18C0
30C0
30C0
3180
6180
6300
FE00
ENDCHAR

STARTCHAR E
ENCODING 69
SWIDTH 635 0
DWIDTH 8 0
BBX 9 9 0 0
BITMAP
3F80
1980
1980
3000
3C00
3000
6300
6300
FE00
ENDCHAR

STARTCHAR F
ENCODING 70
SWIDTH 583 0
DWIDTH 8 0
BBX 9 9 0 0
BITMAP
3F80
1980
1980
3000
3C00
3000
6000
6000
F800
ENDCHAR

STARTCHAR G
ENCODING 71
SWIDTH 813 0
DWIDTH 11 0
BBX 9 9 2 0
BITMAP
1F00
3180
6180
6000
C000
C700
C300
E600
7C00
ENDCHAR

STARTCHAR H
ENCODING 72
SWIDTH 740 0
DWIDTH 10 0
BBX 12 9 0 0
BITMAP
3CF0
1860
1860
30C0
3FC0
30C0
6180
6180
F3C0
ENDCHAR

STARTCHAR I
ENCODING 73
SWIDTH 396 0
DWIDTH 5 0
BBX 6 9 1 0
BITMAP
3C
18
18
30
30
30
60
60
F0
ENDCHAR

STARTCHAR J
ENCODING 74
SWIDTH 375 0
DWIDTH 5 0
BBX 8 11 -1 -2
BITMAP
0F
06
06
0C
0C
0C
0C
18
18
30
E0
ENDCHAR

STARTCHAR K
ENCODING 75
SWIDTH 708 0
DWIDTH 9 0
BBX 11 9 0 0
BITMAP
3CE0
1980
1B00
3600
3C00
3600
6600
6300
F780
ENDCHAR

STARTCHAR L
ENCODING 76
SWIDTH 604 0
DWIDTH 8 0
BBX 8 9 0 0
BITMAP
3C
18
18
30
30
33
63
66
FE
ENDCHAR

STARTCHAR M
ENCODING 77
SWIDTH 1021 0
DWIDTH 13 0
BBX 15 9 0 0
BITMAP
3C1E
1C3C
142C
3668
36D8
3698
63B0
6330
F378
ENDCHAR

STARTCHAR N
ENCODING 78
SWIDTH 792 0
DWIDTH 10 0
BBX 12 9 0 0
BITMAP
3CF0
1C60
1460
36C0
36C0
32C0
6380
6180
F180
ENDCHAR

STARTCHAR O
ENCODING 79
SWIDTH 823 0
DWIDTH 11 0
BBX 9 9 2 0
BITMAP
1F00
3380
6180
6180
C180
C300
C300
E600
7C00
ENDCHAR

STARTCHAR P
ENCODING 80
SWIDTH 646 0
DWIDTH 8 0
BBX 9 9 0 0
BITMAP
3F00
1980
1980
3180
3300
3E00
6000
6000
F000
ENDCHAR

STARTCHAR Q
ENCODING 81
SWIDTH 823 0
DWIDTH 11 0
BBX 9 11 2 -2
BITMAP
1F00
3380
6180
6180
C180
C300
C300
E600
7C00
3800
4E00
ENDCHAR

STARTCHAR R
ENCODING 82
SWIDTH 698 0
DWIDTH 9 0
BBX 9 9 0 0
BITMAP
3F00
1980
1980
3300
3E00
3600
6600
6300
F380
ENDCHAR

STARTCHAR S
ENCODING 83
SWIDTH 510 0
DWIDTH 7 0
BBX 7 9 1 0
BITMAP
3E
66
60
70
38
1C
CC
CC
F8
ENDCHAR

STARTCHAR T
ENCODING 84
SWIDTH 688 0
DWIDTH 9 0
BBX 8 9 2 0
BITMAP
7F
DB
DB
30
30
30
60
60
F0
ENDCHAR

STARTCHAR U
ENCODING 85
SWIDTH 708 0
DWIDTH 9 0
BBX 10 9 1 0
BITMAP
7BC0
3180
3180
6300
6300
6300
C600
C600
7C00
ENDCHAR

STARTCHAR V
ENCODING 86
SWIDTH 646 0
DWIDTH 8 0
BBX 9 9 1 0
BITMAP
F780
6300
6600
6600
6C00
6800
7800
7000
6000
ENDCHAR

STARTCHAR W
ENCODING 87
SWIDTH 896 0
DWIDTH 12 0
BBX 14 9 1 0
BITMAP
F7BC
6318
6730
6730
6F60
6B40
7BC0
7380
6300
ENDCHAR

STARTCHAR X
ENCODING 88
SWIDTH 677 0
DWIDTH 9 0
BBX 10 9 1 0
BITMAP
3DC0
1980
1B00
0E00
0C00
1C00
3600
6600
EF00
ENDCHAR

STARTCHAR Y
ENCODING 89
SWIDTH 625 0
DWIDTH 8 0
BBX 9 9 1 0
BITMAP
F780
6300
3600
3C00
1800
1800
3000
3000
7800
ENDCHAR

STARTCHAR Z
ENCODING 90
SWIDTH 604 0
DWIDTH 8 0
BBX 8 9 1 0
BITMAP
1F
33
26
0C
18
30
66
CC
F8
ENDCHAR

STARTCHAR bracketleft
ENCODING 91
SWIDTH 385 0
DWIDTH 5 0
BBX 7 12 1 -3
BITMAP
1E
18
18
30
30
30
60
60
60
C0
C0
F0
ENDCHAR

STARTCHAR backslash
ENCODING 92
SWIDTH 508 0
DWIDTH 7 0
BBX 6 9 1 0
BITMAP
C0
C0
60
60
30
30
18
18
0C
ENDCHAR

STARTCHAR bracketright
ENCODING 93
SWIDTH 385 0
DWIDTH 5 0
BBX 7 12 -2 -3
BITMAP
1E
06
06
0C
0C
0C
18
18
18
30
30
F0
ENDCHAR

STARTCHAR asciicircum
ENCODING 94
SWIDTH 583 0
DWIDTH 8 0
BBX 6 4 2 5
BITMAP
30
78
CC
84
ENDCHAR

STARTCHAR underscore
ENCODING 95
SWIDTH 500 0
DWIDTH 7 0
BBX 7 1 0 -2
BITMAP
FE
ENDCHAR

STARTCHAR quoteleft
ENCODING 96
SWIDTH 333 0
DWIDTH 4 0
BBX 3 4 2 5
BITMAP
60
80
C0
C0
ENDCHAR

STARTCHAR a
ENCODING 97
SWIDTH 573 0
DWIDTH 7 0
BBX 6 6 1 0
BITMAP
78
0C
7C
D8
D8
6C
ENDCHAR

STARTCHAR b
ENCODING 98
SWIDTH 604 0
DWIDTH 8 0
BBX 8 9 0 0
BITMAP
38
18
18
36
3B
33
63
76
EC
ENDCHAR

STARTCHAR c
ENCODING 99
SWIDTH 531 0
DWIDTH 7 0
BBX 6 6 1 0
BITMAP
3C
6C
C0
C0
D8
70
ENDCHAR

STARTCHAR d
ENCODING 100
SWIDTH 604 0
DWIDTH 8 0
BBX 8 9 1 0
BITMAP
07
03
03
36
6E
C6
CC
CC
76
ENDCHAR

STARTCHAR e
ENCODING 101
SWIDTH 552 0
DWIDTH 7 0
BBX 6 6 1 0
BITMAP
38
6C
FC
C0
D8
70
ENDCHAR

STARTCHAR f
ENCODING 102
SWIDTH 333 0
DWIDTH 4 0
BBX 7 9 0 0
BITMAP
0E
18
18
7C
30
30
60
60
F0
ENDCHAR

STARTCHAR g
ENCODING 103
SWIDTH 604 0
DWIDTH 8 0
BBX 9 9 0 -3
BITMAP
1D80
3700
6300
6300
6600
3E00
0600
CC00
7800
ENDCHAR

STARTCHAR h
ENCODING 104
SWIDTH 604 0
DWIDTH 8 0
BBX 8 9 0 0
BITMAP
38
18
18
36
3B
33
66
66
F7
ENDCHAR

STARTCHAR i
ENCODING 105
SWIDTH 333 0
DWIDTH 4 0
BBX 5 9 0 0
BITMAP
18
18
00
70
30
30
60
60
F0
ENDCHAR

STARTCHAR j
ENCODING 106
SWIDTH 323 0
DWIDTH 4 0
BBX 7 12 -2 -3
BITMAP
06
06
00
1C
0C
0C
18
18
18
30
30
E0
ENDCHAR

STARTCHAR k
ENCODING 107
SWIDTH 573 0
DWIDTH 7 0
BBX 8 9 0 0
BITMAP
38
18
18
37
34
38
78
6C
F6
ENDCHAR

STARTCHAR l
ENCODING 108
SWIDTH 333 0
DWIDTH 4 0
BBX 5 9 0 0
BITMAP
38
18
18
30
30
30
60
60
F0
ENDCHAR

STARTCHAR m
ENCODING 109
SWIDTH 969 0
DWIDTH 13 0
BBX 12 6 1 0
BITMAP
7760
3BB0
3330
6660
6660
F770
ENDCHAR

STARTCHAR n
ENCODING 110
SWIDTH 604 0
DWIDTH 8 0
BBX 8 6 0 0
BITMAP
76
3B
33
66
66
F7
ENDCHAR

STARTCHAR o
ENCODING 111
SWIDTH 573 0
DWIDTH 7 0
BBX 6 6 1 0
BITMAP
38
6C
CC
CC
D8
70
ENDCHAR

STARTCHAR p
ENCODING 112
SWIDTH 604 0
DWIDTH 8 0
BBX 9 9 -1 -3
BITMAP
3B00
1D80
1980
3180
3B00
3600
6000
6000
F000
ENDCHAR

STARTCHAR q
ENCODING 113
SWIDTH 604 0
DWIDTH 8 0
BBX 8 9 1 -3
BITMAP
3B
6E
C6
CC
DC
6C
18
18
3C
ENDCHAR

STARTCHAR r
ENCODING 114
SWIDTH 417 0
DWIDTH 5 0
BBX 6 6 0 0
BITMAP
74
3C
30
60
60
F0
ENDCHAR

STARTCHAR s
ENCODING 115
SWIDTH 490 0
DWIDTH 6 0
BBX 6 6 0 0
BITMAP
3C
6C
30
18
D8
F0
ENDCHAR

STARTCHAR t
ENCODING 116
SWIDTH 333 0
DWIDTH 4 0
BBX 5 8 1 0
BITMAP
10
30
F8
60
60
C0
C0
E0
ENDCHAR

STARTCHAR u
ENCODING 117
SWIDTH 604 0
DWIDTH 8 0
BBX 7 6 1 0
BITMAP
EE
66
66
CC
DC
EE
ENDCHAR

STARTCHAR v
ENCODING 118
SWIDTH 510 0
DWIDTH 7 0
BBX 8 6 1 0
BITMAP
EF
66
6C
6C
38
30
ENDCHAR

STARTCHAR w
ENCODING 119
SWIDTH 760 0
DWIDTH 10 0
BBX 12 6 0 0
BITMAP
F6F0
6660
6EC0
6EC0
3380
3300
ENDCHAR

STARTCHAR x
ENCODING 120
SWIDTH 500 0
DWIDTH 7 0
BBX 8 6 0 0
BITMAP
77
36
1C
38
6C
EE
ENDCHAR

STARTCHAR y
ENCODING 121
SWIDTH 563 0
DWIDTH 7 0
BBX 10 9 -1 -3
BITMAP
3BC0
1980
1B00
1B00
0E00
0C00
1800
3000
E000
ENDCHAR

STARTCHAR z
ENCODING 122
SWIDTH 479 0
DWIDTH 6 0
BBX 7 6 0 0
BITMAP
3E
6C
18
30
6C
F8
ENDCHAR

STARTCHAR braceleft
ENCODING 123
SWIDTH 385 0
DWIDTH 5 0
BBX 5 12 1 -3
BITMAP
18
20
20
20
20
C0
20
20
20
20
20
18
ENDCHAR

STARTCHAR bar
ENCODING 124
SWIDTH 611 0
DWIDTH 8 0
BBX 1 12 4 -3
BITMAP
80
80
80
80
80
80
80
80
80
80
80
80
ENDCHAR

STARTCHAR braceright
ENCODING 125
SWIDTH 385 0
DWIDTH 5 0
BBX 5 12 1 -3
BITMAP
C0
20
20
20
20
18
20
20
20
20
20
C0
ENDCHAR

STARTCHAR asciitilde
ENCODING 126
SWIDTH 583 0
DWIDTH 8 0
BBX 7 2 1 4
BITMAP
72
9C
ENDCHAR

STARTCHAR space
ENCODING 160
SWIDTH 250 0
DWIDTH 3 0
BBX 0 0 0 0
BITMAP
ENDCHAR

STARTCHAR exclamdown
ENCODING 161
SWIDTH 333 0
DWIDTH 4 0
BBX 4 9 0 -3
BITMAP
30
30
00
60
60
60
C0
C0
C0
ENDCHAR

STARTCHAR cent
ENCODING 162
SWIDTH 531 0
DWIDTH 7 0
BBX 6 12 1 -3
BITMAP
04
04
08
3C
7C
D0
D0
F8
70
20
40
40
ENDCHAR

STARTCHAR sterling
ENCODING 163
SWIDTH 510 0
DWIDTH 7 0
BBX 7 9 0 0
BITMAP
1C
36
30
30
7C
30
70
B6
FC
ENDCHAR

STARTCHAR currency
ENCODING 164
SWIDTH 667 0
DWIDTH 9 0
BBX 7 7 2 1
BITMAP
D6
FE
6C
C6
6C
FE
D6
ENDCHAR

STARTCHAR yen
ENCODING 165
SWIDTH 625 0
DWIDTH 8 0
BBX 9 9 1 0
BITMAP
F780
6300
3600
FF00
1800
FF00
3000
3000
7800
ENDCHAR

STARTCHAR brokenbar
ENCODING 166
SWIDTH 611 0
DWIDTH 8 0
BBX 1 12 4 -3
BITMAP
80
80
80
80
80
00
00
80
80
80
80
80
ENDCHAR

STARTCHAR section
ENCODING 167
SWIDTH 510 0
DWIDTH 7 0
BBX 6 12 1 -3
BITMAP
38
6C
60
30
78
CC
CC
78
30
18
D8
70
ENDCHAR

STARTCHAR dieresis
ENCODING 168
SWIDTH 333 0
DWIDTH 4 0
BBX 5 2 1 7
BITMAP
D8
D8
ENDCHAR

STARTCHAR copyright
ENCODING 169
SWIDTH 740 0
DWIDTH 10 0
BBX 9 9 1 0
BITMAP
3E00
4100
9C80
B480
B080
B480
9C80
4100
3E00
ENDCHAR

STARTCHAR ordfeminine
ENCODING 170
SWIDTH 375 0
DWIDTH 5 0
BBX 4 4 2 5
BITMAP
60
30
E0
B0
ENDCHAR

STARTCHAR guillemotleft
ENCODING 171
SWIDTH 531 0
DWIDTH 7 0
BBX 7 6 0 0
BITMAP
12
36
6C
D8
6C
24
ENDCHAR

STARTCHAR logicalnot
ENCODING 172
SWIDTH 668 0
DWIDTH 9 0
BBX 6 4 2 2
BITMAP
FC
04
04
04
ENDCHAR

STARTCHAR hyphen
ENCODING 173
SWIDTH 344 0
DWIDTH 4 0
BBX 3 1 1 3
BITMAP
E0
ENDCHAR

STARTCHAR registered
ENCODING 174
SWIDTH 740 0
DWIDTH 10 0
BBX 9 9 1 0
BITMAP
3E00
4100
FE80
B680
BC80
B680
F680
4100
3E00
ENDCHAR

STARTCHAR macron
ENCODING 175
SWIDTH 333 0
DWIDTH 4 0
BBX 4 1 0 7
BITMAP
F0
ENDCHAR

STARTCHAR degree
ENCODING 176
SWIDTH 396 0
DWIDTH 5 0
BBX 4 4 2 5
BITMAP
60
90
90
60
ENDCHAR

STARTCHAR plusminus
ENCODING 177
SWIDTH 668 0
DWIDTH 9 0
BBX 7 9 1 0
BITMAP
10
10
10
FE
10
10
10
00
FE
ENDCHAR

STARTCHAR twosuperior
ENCODING 178
SWIDTH 333 0
DWIDTH 4 0
BBX 4 5 1 4
BITMAP
60
30
60
C0
E0
ENDCHAR

STARTCHAR threesuperior
ENCODING 179
SWIDTH 333 0
DWIDTH 4 0
BBX 4 5 1 4
BITMAP
60
30
60
30
E0
ENDCHAR

STARTCHAR acute
ENCODING 180
SWIDTH 333 0
DWIDTH 4 0
BBX 4 3 1 6
BITMAP
30
60
80
ENDCHAR

STARTCHAR mu
ENCODING 181
SWIDTH 615 0
DWIDTH 8 0
BBX 8 9 0 -3
BITMAP
33
33
33
66
6E
77
C0
C0
C0
ENDCHAR

STARTCHAR paragraph
ENCODING 182
SWIDTH 552 0
DWIDTH 7 0
BBX 7 11 0 -2
BITMAP
3E
76
F6
F6
F6
36
36
36
36
36
36
ENDCHAR

STARTCHAR periodcentered
ENCODING 183
SWIDTH 333 0
DWIDTH 4 0
BBX 2 2 2 4
BITMAP
C0
C0
ENDCHAR

STARTCHAR cedilla
ENCODING 184
SWIDTH 333 0
DWIDTH 4 0
BBX 4 3 -1 -3
BITMAP
60
30
E0
ENDCHAR

STARTCHAR onesuperior
ENCODING 185
SWIDTH 333 0
DWIDTH 4 0
BBX 4 5 1 4
BITMAP
70
30
60
60
F0
ENDCHAR

STARTCHAR ordmasculine
ENCODING 186
SWIDTH 375 0
DWIDTH 5 0
BBX 5 5 1 4
BITMAP
30
58
D8
D0
60
ENDCHAR

STARTCHAR guillemotright
ENCODING 187
SWIDTH 531 0
DWIDTH 7 0
BBX 7 6 0 0
BITMAP
48
6C
36
6C
D8
90
ENDCHAR

STARTCHAR onequarter
ENCODING 188
SWIDTH 927 0
DWIDTH 12 0
BBX 11 9 1 0
BITMAP
7060
30C0
6180
6300
F640
0CC0
1980
33C0
6180
ENDCHAR

STARTCHAR onehalf
ENCODING 189
SWIDTH 927 0
DWIDTH 12 0
BBX 11 9 1 0
BITMAP
7060
30C0
6180
6300
F6C0
0C60
18C0
3180
61C0
ENDCHAR

STARTCHAR threequarters
ENCODING 190
SWIDTH 927 0
DWIDTH 12 0
BBX 11 9 2 0
BITMAP
6060
30C0
6180
3300
E640
0CC0
1980
33C0
6180
ENDCHAR

STARTCHAR questiondown
ENCODING 191
SWIDTH 542 0
DWIDTH 7 0
BBX 6 9 0 -3
BITMAP
0C
0C
00
18
18
70
C0
CC
78
ENDCHAR

STARTCHAR Agrave
ENCODING 192
SWIDTH 646 0
DWIDTH 8 0
BBX 9 13 0 0
BITMAP
1800
0C00
0200
0000
1F80
0F00
1B00
1B00
3300
3F00
6300
6300
F780
ENDCHAR

STARTCHAR Aacute
ENCODING 193
SWIDTH 646 0
DWIDTH 8 0
BBX 10 13 0 0
BITMAP
00C0
0180
0200
0000
1F80
0F00
1B00
1B00
3300
3F00
6300
6300
F780
ENDCHAR

STARTCHAR Acircumflex
ENCODING 194
SWIDTH 646 0
DWIDTH 8 0
BBX 9 13 0 0
BITMAP
0300
0700
0900
0000
1F80
0F00
1B00
1B00
3300
3F00
6300
6300
F780
ENDCHAR

STARTCHAR Atilde
ENCODING 195
SWIDTH 646 0
DWIDTH 8 0
BBX 10 12 0 0
BITMAP
0740
0B80
0000
1F80
0F00
1B00
1B00
3300
3F00
6300
6300
F780
ENDCHAR

STARTCHAR Adieresis
ENCODING 196
SWIDTH 646 0
DWIDTH 8 0
BBX 9 12 0 0
BITMAP
0D80
0D80
0000
1F80
0F00
1B00
1B00
3300
3F00
6300
6300
F780
ENDCHAR

STARTCHAR Aring
ENCODING 197
SWIDTH 646 0
DWIDTH 8 0
BBX 9 13 0 0
BITMAP
0600
0900
0900
0600
1F80
0F00
1B00
1B00
3300
3F00
6300
6300
F780
ENDCHAR

STARTCHAR AE
ENCODING 198
SWIDTH 927 0
DWIDTH 12 0
BBX 15 9 -2 0
BITMAP
07FE
0366
0666
0CC0
1FF0
18C0
318C
618C
F3F8
ENDCHAR

STARTCHAR Ccedilla
ENCODING 199
SWIDTH 771 0
DWIDTH 10 0
BBX 9 12 2 -3
BITMAP
1F00
3180
6180
6000
C000
C000
C300
E600
7C00
3000
1800
7000
ENDCHAR

STARTCHAR Egrave
ENCODING 200
SWIDTH 635 0
DWIDTH 8 0
BBX 9 13 0 0
BITMAP
1800
0C00
0200
0000
3F80
1980
1980
3000
3C00
3000
6300
6300
FE00
ENDCHAR

STARTCHAR Eacute
ENCODING 201
SWIDTH 635 0
DWIDTH 8 0
BBX 9 13 0 0
BITMAP
0180
0300
0400
0000
3F80
1980
1980
3000
3C00
3000
6300
6300
FE00
ENDCHAR

STARTCHAR Ecircumflex
ENCODING 202
SWIDTH 635 0
DWIDTH 8 0
BBX 9 13 0 0
BITMAP
0300
0700
0900
0000
3F80
1980
1980
3000
3C00
3000
6300
6300
FE00
ENDCHAR

STARTCHAR Edieresis
ENCODING 203
SWIDTH 635 0
DWIDTH 8 0
BBX 9 12 0 0
BITMAP
0D80
0D80
0000
3F80
1980
1980
3000
3C00
3000
6300
6300
FE00
ENDCHAR

STARTCHAR Igrave
ENCODING 204
SWIDTH 396 0
DWIDTH 5 0
BBX 6 13 1 0
BITMAP
30
18
04
00
3C
18
18
30
30
30
60
60
F0
ENDCHAR

STARTCHAR Iacute
ENCODING 205
SWIDTH 396 0
DWIDTH 5 0
BBX 8 13 1 0
BITMAP
03
06
08
00
3C
18
18
30
30
30
60
60
F0
ENDCHAR

STARTCHAR Icircumflex
ENCODING 206
SWIDTH 396 0
DWIDTH 5 0
BBX 7 13 1 0
BITMAP
04
0E
12
00
3C
18
18
30
30
30
60
60
F0
ENDCHAR

STARTCHAR Idieresis
ENCODING 207
SWIDTH 396 0
DWIDTH 5 0
BBX 7 12 1 0
BITMAP
36
36
00
3C
18
18
30
30
30
60
60
F0
ENDCHAR

STARTCHAR Eth
ENCODING 208
SWIDTH 760 0
DWIDTH 10 0
BBX 10 9 0 0
BITMAP
3F80
19C0
18C0
30C0
7CC0
3180
6180
6300
FE00
ENDCHAR

STARTCHAR Ntilde
ENCODING 209
SWIDTH 792 0
DWIDTH 10 0
BBX 12 12 0 0
BITMAP
0740
0B80
0000
3CF0
1C60
1460
36C0
36C0
32C0
6380
6180
F180
ENDCHAR

STARTCHAR Ograve
ENCODING 210
SWIDTH 823 0
DWIDTH 11 0
BBX 9 13 2 0
BITMAP
1800
0C00
0200
0000
1F00
3380
6180
6180
C180
C300
C300
E600
7C00
ENDCHAR

STARTCHAR Oacute
ENCODING 211
SWIDTH 823 0
DWIDTH 11 0
BBX 9 13 2 0
BITMAP
0180
0300
0400
0000
1F00
3380
6180
6180
C180
C300
C300
E600
7C00
ENDCHAR

STARTCHAR Ocircumflex
ENCODING 212
SWIDTH 823 0
DWIDTH 11 0
BBX 9 13 2 0
BITMAP
0300
0700
0900
0000
1F00
3380
6180
6180
C180
C300
C300
E600
7C00
ENDCHAR

STARTCHAR Otilde
ENCODING 213
SWIDTH 823 0
DWIDTH 11 0
BBX 10 12 2 0
BITMAP
0740
0B80
0000
1F00
3380
6180
6180
C180
C300
C300
E600
7C00
ENDCHAR

STARTCHAR Odieresis
ENCODING 214
SWIDTH 823 0
DWIDTH 11 0
BBX 9 12 2 0
BITMAP
0D80
0D80
0000
1F00
3380
6180
6180
C180
C300
C300
E600
7C00
ENDCHAR

STARTCHAR multiply
ENCODING 215
SWIDTH 667 0
DWIDTH 9 0
BBX 8 7 1 1
BITMAP
C3
66
3C
18
3C
66
C3
ENDCHAR

STARTCHAR Oslash
ENCODING 216
SWIDTH 823 0
DWIDTH 11 0
BBX 9 11 2 -1
BITMAP
0180
1F00
3780
6580
6D80
D980
DB00
F300
E600
7C00
C000
ENDCHAR

STARTCHAR Ugrave
ENCODING 217
SWIDTH 708 0
DWIDTH 9 0
BBX 10 13 1 0
BITMAP
1800
0C00
0200
0000
7BC0
3180
3180
6300
6300
6300
C600
C600
7C00
ENDCHAR

STARTCHAR Uacute
ENCODING 218
SWIDTH 708 0
DWIDTH 9 0
BBX 10 13 1 0
BITMAP
0300
0600
0800
0000
7BC0
3180
3180
6300
6300
6300
C600
C600
7C00
ENDCHAR

STARTCHAR Ucircumflex
ENCODING 219
SWIDTH 708 0
DWIDTH 9 0
BBX 10 13 1 0
BITMAP
0200
0700
0900
0000
7BC0
3180
3180
6300
6300
6300
C600
C600
7C00
ENDCHAR

STARTCHAR Udieresis
ENCODING 220
SWIDTH 708 0
DWIDTH 9 0
BBX 10 12 1 0
BITMAP
1980
1980
0000
7BC0
3180
3180
6300
6300
6300
C600
C600
7C00
ENDCHAR

STARTCHAR Yacute
ENCODING 221
SWIDTH 625 0
DWIDTH 8 0
BBX 9 13 1 0
BITMAP
0300
0600
0800
0000
F780
6300
3600
3C00
1800
1800
3000
3000
7800
ENDCHAR

STARTCHAR Thorn
ENCODING 222
SWIDTH 646 0
DWIDTH 8 0
BBX 8 9 0 0
BITMAP
3C
18
1E
33
33
36
7C
60
F0
ENDCHAR

STARTCHAR germandbls
ENCODING 223
SWIDTH 615 0
DWIDTH 8 0
BBX 8 9 0 0
BITMAP
0E
1B
33
36
33
63
63
66
EC
ENDCHAR

STARTCHAR agrave
ENCODING 224
SWIDTH 573 0
DWIDTH 7 0
BBX 6 10 1 0
BITMAP
60
30
08
00
78
0C
7C
D8
D8
6C
ENDCHAR

STARTCHAR aacute
ENCODING 225
SWIDTH 573 0
DWIDTH 7 0
BBX 7 10 1 0
BITMAP
06
0C
10
00
78
0C
7C
D8
D8
6C
ENDCHAR

STARTCHAR acircumflex
ENCODING 226
SWIDTH 573 0
DWIDTH 7 0
BBX 6 10 1 0
BITMAP
08
1C
24
00
78
0C
7C
D8
D8
6C
ENDCHAR

STARTCHAR atilde
ENCODING 227
SWIDTH 573 0
DWIDTH 7 0
BBX 7 9 1 0
BITMAP
3A
5C
00
78
0C
7C
D8
D8
6C
ENDCHAR

STARTCHAR adieresis
ENCODING 228
SWIDTH 573 0
DWIDTH 7 0
BBX 7 9 1 0
BITMAP
36
36
00
78
0C
7C
D8
D8
6C
ENDCHAR

STARTCHAR aring
ENCODING 229
SWIDTH 573 0
DWIDTH 7 0
BBX 6 10 1 0
BITMAP
10
28
10
00
78
0C
7C
D8
D8
6C
ENDCHAR

STARTCHAR ae
ENCODING 230
SWIDTH 844 0
DWIDTH 11 0
BBX 9 6 1 0
BITMAP
7300
0D80
7F80
CC00
DD80
6700
ENDCHAR

STARTCHAR ccedilla
ENCODING 231
SWIDTH 531 0
DWIDTH 7 0
BBX 6 9 1 -3
BITMAP
3C
6C
C0
C0
D8
70
60
30
E0
ENDCHAR

STARTCHAR egrave
ENCODING 232
SWIDTH 552 0
DWIDTH 7 0
BBX 6 10 1 0
BITMAP
60
30
08
00
38
6C
FC
C0
D8
70
ENDCHAR

STARTCHAR eacute
ENCODING 233
SWIDTH 552 0
DWIDTH 7 0
BBX 7 10 1 0
BITMAP
06
0C
10
00
38
6C
FC
C0
D8
70
ENDCHAR

STARTCHAR ecircumflex
ENCODING 234
SWIDTH 552 0
DWIDTH 7 0
BBX 6 10 1 0
BITMAP
08
1C
24
00
38
6C
FC
C0
D8
70
ENDCHAR

STARTCHAR edieresis
ENCODING 235
SWIDTH 552 0
DWIDTH 7 0
BBX 7 9 1 0
BITMAP
36
36
00
38
6C
FC
C0
D8
70
ENDCHAR

STARTCHAR igrave
ENCODING 236
SWIDTH 333 0
DWIDTH 4 0
BBX 5 10 0 0
BITMAP
60
30
08
00
70
30
30
60
60
F0
ENDCHAR

STARTCHAR iacute
ENCODING 237
SWIDTH 333 0
DWIDTH 4 0
BBX 6 10 0 0
BITMAP
0C
18
20
00
70
30
30
60
60
F0
ENDCHAR

STARTCHAR icircumflex
ENCODING 238
SWIDTH 333 0
DWIDTH 4 0
BBX 5 10 0 0
BITMAP
10
38
48
00
70
30
30
60
60
F0
ENDCHAR

STARTCHAR idieresis
ENCODING 239
SWIDTH 333 0
DWIDTH 4 0
BBX 6 9 0 0
BITMAP
6C
6C
00
70
30
30
60
60
F0
ENDCHAR

STARTCHAR eth
ENCODING 240
SWIDTH 635 0
DWIDTH 8 0
BBX 6 10 1 0
BITMAP
30
1C
38
0C
3C
6C
CC
CC
D8
70
ENDCHAR

STARTCHAR ntilde
ENCODING 241
SWIDTH 604 0
DWIDTH 8 0
BBX 8 9 0 0
BITMAP
1D
2E
00
76
3B
33
66
66
F7
ENDCHAR

STARTCHAR ograve
ENCODING 242
SWIDTH 573 0
DWIDTH 7 0
BBX 6 10 1 0
BITMAP
60
30
08
00
38
6C
CC
CC
D8
70
ENDCHAR

STARTCHAR oacute
ENCODING 243
SWIDTH 573 0
DWIDTH 7 0
BBX 7 10 1 0
BITMAP
06
0C
10
00
38
6C
CC
CC
D8
70
ENDCHAR

STARTCHAR ocircumflex
ENCODING 244
SWIDTH 573 0
DWIDTH 7 0
BBX 6 10 1 0
BITMAP
08
1C
24
00
38
6C
CC
CC
D8
70
ENDCHAR

STARTCHAR otilde
ENCODING 245
SWIDTH 573 0
DWIDTH 7 0
BBX 7 9 1 0
BITMAP
3A
5C
00
38
6C
CC
CC
D8
70
ENDCHAR

STARTCHAR odieresis
ENCODING 246
SWIDTH 573 0
DWIDTH 7 0
BBX 7 9 1 0
BITMAP
36
36
00
38
6C
CC
CC
D8
70
ENDCHAR

STARTCHAR divide
ENCODING 247
SWIDTH 668 0
DWIDTH 9 0
BBX 8 7 1 1
BITMAP
18
18
00
FF
00
18
18
ENDCHAR

STARTCHAR oslash
ENCODING 248
SWIDTH 573 0
DWIDTH 7 0
BBX 6 8 1 -1
BITMAP
0C
38
6C
DC
EC
D8
70
C0
ENDCHAR

STARTCHAR ugrave
ENCODING 249
SWIDTH 604 0
DWIDTH 8 0
BBX 7 10 1 0
BITMAP
60
30
08
00
EE
66
66
CC
DC
EE
ENDCHAR

STARTCHAR uacute
ENCODING 250
SWIDTH 604 0
DWIDTH 8 0
BBX 7 10 1 0
BITMAP
06
0C
10
00
EE
66
66
CC
DC
EE
ENDCHAR

STARTCHAR ucircumflex
ENCODING 251
SWIDTH 604 0
DWIDTH 8 0
BBX 7 10 1 0
BITMAP
08
1C
24
00
EE
66
66
CC
DC
EE
ENDCHAR

STARTCHAR udieresis
ENCODING 252
SWIDTH 604 0
DWIDTH 8 0
BBX 7 9 1 0
BITMAP
36
36
00
EE
66
66
CC
DC
EE
ENDCHAR

STARTCHAR yacute
ENCODING 253
SWIDTH 563 0
DWIDTH 7 0
BBX 10 13 -1 -3
BITMAP
0180
0300
0400
0000
3BC0
1980
1B00
1B00
0E00
0C00
1800
3000
E000
ENDCHAR

STARTCHAR thorn
ENCODING 254
SWIDTH 604 0
DWIDTH 8 0
BBX 9 12 -1 -3
BITMAP
1E00
0C00
0C00
1B00
1D80
1980
3180
3B00
3600
6000
6000
F000
ENDCHAR

STARTCHAR ydieresis
ENCODING 255
SWIDTH 563 0
DWIDTH 7 0
BBX 10 12 -1 -3
BITMAP
0D80
0D80
0000
3BC0
1980
1B00
1B00
0E00
0C00
1800
3000
E000
ENDCHAR
ENDFONT
